<?xml version="1.0" encoding="UTF-8" standalone="no"?>
<!DOCTYPE svg PUBLIC "-//W3C//DTD SVG 1.0//EN" "http://www.w3.org/TR/2001/PR-SVG-20010719/DTD/svg10.dtd">
<svg width="11cm" height="3cm" viewBox="35 87 202 47" xmlns="http://www.w3.org/2000/svg" xmlns:xlink="http://www.w3.org/1999/xlink">
  <defs/>
  <g id="Background">
    <rect style="fill: #ffffff; fill-opacity: 1; stroke-opacity: 1; stroke-width: 1; stroke: #000000" x="36" y="100" width="40" height="16" rx="0" ry="0"/>
    <text font-size="5.64444" style="fill: #000000; fill-opacity: 1; stroke: none;text-anchor:start;font-family:sans-serif;font-style:normal;font-weight:normal" x="198" y="109.954">
      <tspan x="198" y="109.954">nIRQ</tspan>
    </text>
    <text font-size="5.64444" style="fill: #000000; fill-opacity: 1; stroke: none;text-anchor:middle;font-family:sans-serif;font-style:normal;font-weight:normal" x="56" y="109.954">
      <tspan x="56" y="109.954">Oscilador</tspan>
    </text>
    <rect style="fill: none; stroke-opacity: 1; stroke-width: 1; stroke: #000000" x="196" y="88" width="40" height="40" rx="0" ry="0"/>
    <text font-size="5.64444" style="fill: #000000; fill-opacity: 1; stroke: none;text-anchor:start;font-family:sans-serif;font-style:normal;font-weight:normal" x="200" y="93.9541">
      <tspan x="200" y="93.9541">SDP16</tspan>
    </text>
    <line style="fill: none; stroke-opacity: 1; stroke-width: 0.6; stroke: #000000" x1="84" y1="116" x2="100" y2="116"/>
    <line style="fill: none; stroke-opacity: 1; stroke-width: 0.6; stroke: #000000" x1="100" y1="124" x2="116" y2="124"/>
    <line style="fill: none; stroke-opacity: 1; stroke-width: 0.6; stroke: #000000" x1="100" y1="116" x2="100" y2="124"/>
    <line style="fill: none; stroke-opacity: 1; stroke-width: 0.6; stroke: #000000" x1="116" y1="116" x2="116" y2="124"/>
    <line style="fill: none; stroke-opacity: 1; stroke-width: 0.6; stroke: #000000" x1="116" y1="116" x2="132" y2="116"/>
    <line style="fill: none; stroke-opacity: 1; stroke-width: 0.6; stroke: #000000" x1="132" y1="124" x2="148" y2="124"/>
    <line style="fill: none; stroke-opacity: 1; stroke-width: 0.6; stroke: #000000" x1="132" y1="116" x2="132" y2="124"/>
    <line style="fill: none; stroke-opacity: 1; stroke-width: 0.6; stroke: #000000" x1="148" y1="116" x2="148" y2="124"/>
    <g>
      <line style="fill: none; stroke-opacity: 1; stroke-width: 0.6; stroke: #000000" x1="100" y1="127.5" x2="100" y2="134"/>
      <polygon style="fill: #000000; fill-opacity: 1; stroke-opacity: 1; stroke-width: 0.6; stroke: #000000" fill-rule="evenodd" points="100.6,127.5 100,126.3 99.4,127.5 "/>
    </g>
    <g>
      <line style="fill: none; stroke-opacity: 1; stroke-width: 0.6; stroke: #000000" x1="104" y1="127.5" x2="104" y2="134"/>
      <polygon style="fill: #000000; fill-opacity: 1; stroke-opacity: 1; stroke-width: 0.6; stroke: #000000" fill-rule="evenodd" points="104.6,127.5 104,126.3 103.4,127.5 "/>
    </g>
    <g>
      <line style="fill: none; stroke-opacity: 1; stroke-width: 0.6; stroke: #000000" x1="108" y1="127.5" x2="108" y2="134"/>
      <polygon style="fill: #000000; fill-opacity: 1; stroke-opacity: 1; stroke-width: 0.6; stroke: #000000" fill-rule="evenodd" points="108.6,127.5 108,126.3 107.4,127.5 "/>
    </g>
    <line style="fill: none; stroke-opacity: 1; stroke-width: 0.6; stroke: #000000" x1="76" y1="108" x2="196" y2="108"/>
    <g>
      <line style="fill: none; stroke-opacity: 1; stroke-width: 0.6; stroke: #000000" x1="132" y1="127.5" x2="132" y2="134"/>
      <polygon style="fill: #000000; fill-opacity: 1; stroke-opacity: 1; stroke-width: 0.6; stroke: #000000" fill-rule="evenodd" points="132.6,127.5 132,126.3 131.4,127.5 "/>
    </g>
    <g>
      <line style="fill: none; stroke-opacity: 1; stroke-width: 0.6; stroke: #000000" x1="136" y1="127.5" x2="136" y2="134"/>
      <polygon style="fill: #000000; fill-opacity: 1; stroke-opacity: 1; stroke-width: 0.6; stroke: #000000" fill-rule="evenodd" points="136.6,127.5 136,126.3 135.4,127.5 "/>
    </g>
    <g>
      <line style="fill: none; stroke-opacity: 1; stroke-width: 0.6; stroke: #000000" x1="140" y1="127.5" x2="140" y2="134"/>
      <polygon style="fill: #000000; fill-opacity: 1; stroke-opacity: 1; stroke-width: 0.6; stroke: #000000" fill-rule="evenodd" points="140.6,127.5 140,126.3 139.4,127.5 "/>
    </g>
  </g>
</svg>
